<mxfile host="app.diagrams.net" agent="Mozilla/5.0 (Macintosh; Intel Mac OS X 10.15; rv:139.0) Gecko/20100101 Firefox/139.0" version="27.1.3">
  <diagram name="Page-1" id="822b0af5-4adb-64df-f703-e8dfc1f81529">
    <mxGraphModel grid="1" page="1" gridSize="10" guides="1" tooltips="1" connect="1" arrows="1" fold="1" pageScale="1" pageWidth="1000" pageHeight="700" background="none" math="0" shadow="0">
      <root>
        <mxCell id="0" />
        <mxCell id="1" parent="0" />
        <mxCell id="H0DkvbpDqiZ52gmWc9GN-28" value="&lt;div&gt;Game Console&lt;/div&gt;&lt;div&gt;IP: 192.168.1.x (DHCP)&lt;/div&gt;&lt;div&gt;LAN3&lt;/div&gt;" style="text;html=1;align=center;verticalAlign=middle;resizable=0;points=[];autosize=1;strokeColor=none;fillColor=none;" vertex="1" parent="1">
          <mxGeometry x="326" y="205.71" width="150" height="60" as="geometry" />
        </mxCell>
        <mxCell id="H0DkvbpDqiZ52gmWc9GN-29" value="&lt;div&gt;Smartphone Phone 2&lt;/div&gt;&lt;div&gt;&lt;div&gt;IP: 192.168.1.x (DHCP)&lt;/div&gt;&lt;/div&gt;" style="text;html=1;align=center;verticalAlign=middle;resizable=0;points=[];autosize=1;strokeColor=none;fillColor=none;" vertex="1" parent="1">
          <mxGeometry x="808.75" y="145.5" width="150" height="40" as="geometry" />
        </mxCell>
        <mxCell id="H0DkvbpDqiZ52gmWc9GN-30" value="&lt;div&gt;Smartphone 1&lt;/div&gt;&lt;div&gt;&lt;div&gt;IP: 192.168.1.x (DHCP)&lt;/div&gt;&lt;/div&gt;" style="text;html=1;align=center;verticalAlign=middle;resizable=0;points=[];autosize=1;strokeColor=none;fillColor=none;" vertex="1" parent="1">
          <mxGeometry x="647.25" y="145.5" width="150" height="40" as="geometry" />
        </mxCell>
        <mxCell id="H0DkvbpDqiZ52gmWc9GN-31" value="Laptop 1 (macOS)&lt;div&gt;VPN Client&lt;/div&gt;&lt;div&gt;&lt;div&gt;IP: 192.168.1.x (DHCP)&lt;/div&gt;&lt;br&gt;&lt;/div&gt;" style="text;html=1;align=center;verticalAlign=middle;resizable=0;points=[];autosize=1;strokeColor=none;fillColor=none;" vertex="1" parent="1">
          <mxGeometry x="647.25" y="291.21" width="150" height="70" as="geometry" />
        </mxCell>
        <mxCell id="H0DkvbpDqiZ52gmWc9GN-32" value="&lt;div&gt;Laptop 2 (Windows)&lt;/div&gt;&lt;div&gt;&lt;div&gt;IP: 192.168.1.x (DHCP)&lt;/div&gt;&lt;br&gt;&lt;/div&gt;" style="text;html=1;align=center;verticalAlign=middle;resizable=0;points=[];autosize=1;strokeColor=none;fillColor=none;" vertex="1" parent="1">
          <mxGeometry x="808.75" y="291.21" width="150" height="60" as="geometry" />
        </mxCell>
        <mxCell id="H0DkvbpDqiZ52gmWc9GN-33" value="&lt;div&gt;Smart TV&lt;/div&gt;&lt;div&gt;&lt;div&gt;IP: 192.168.1.x (DHCP)&lt;/div&gt;&lt;br&gt;&lt;/div&gt;" style="text;html=1;align=center;verticalAlign=middle;resizable=0;points=[];autosize=1;strokeColor=none;fillColor=none;" vertex="1" parent="1">
          <mxGeometry x="326" y="516.5500000000001" width="150" height="60" as="geometry" />
        </mxCell>
        <mxCell id="H0DkvbpDqiZ52gmWc9GN-34" value="&lt;div&gt;Streaming Stick/Set-Top Box&lt;/div&gt;&lt;div&gt;&lt;div&gt;IP: 192.168.1.x (DHCP)&lt;/div&gt;&lt;br&gt;&lt;/div&gt;" style="text;html=1;align=center;verticalAlign=middle;resizable=0;points=[];autosize=1;strokeColor=none;fillColor=none;" vertex="1" parent="1">
          <mxGeometry x="632" y="446.21" width="180" height="60" as="geometry" />
        </mxCell>
        <mxCell id="H0DkvbpDqiZ52gmWc9GN-36" value="&lt;div&gt;Voice Assistant&lt;/div&gt;&lt;div&gt;&lt;div&gt;IP: 192.168.1.x (DHCP)&lt;/div&gt;&lt;br&gt;&lt;/div&gt;" style="text;html=1;align=center;verticalAlign=middle;resizable=0;points=[];autosize=1;strokeColor=none;fillColor=none;" vertex="1" parent="1">
          <mxGeometry x="806.45" y="446.21" width="150" height="60" as="geometry" />
        </mxCell>
        <mxCell id="H0DkvbpDqiZ52gmWc9GN-42" value="&lt;div&gt;Smart Outlet 1&lt;/div&gt;&lt;div&gt;&lt;div&gt;IP: 192.168.1.x (DHCP)&lt;/div&gt;&lt;br&gt;&lt;/div&gt;" style="text;html=1;align=center;verticalAlign=middle;resizable=0;points=[];autosize=1;strokeColor=none;fillColor=none;" vertex="1" parent="1">
          <mxGeometry x="647.25" y="595.71" width="150" height="60" as="geometry" />
        </mxCell>
        <mxCell id="H0DkvbpDqiZ52gmWc9GN-44" value="&lt;div&gt;Smart Outlet 2&lt;/div&gt;&lt;div&gt;&lt;div&gt;IP: 192.168.1.x (DHCP)&lt;/div&gt;&lt;br&gt;&lt;/div&gt;" style="text;html=1;align=center;verticalAlign=middle;resizable=0;points=[];autosize=1;strokeColor=none;fillColor=none;" vertex="1" parent="1">
          <mxGeometry x="807.6" y="595.71" width="150" height="60" as="geometry" />
        </mxCell>
        <mxCell id="H0DkvbpDqiZ52gmWc9GN-45" value="&lt;div&gt;ISP Modem/Router&lt;/div&gt;&lt;div&gt;(Bridge Mode)&lt;/div&gt;" style="text;html=1;align=center;verticalAlign=middle;resizable=0;points=[];autosize=1;strokeColor=none;fillColor=none;" vertex="1" parent="1">
          <mxGeometry x="137" y="363.59" width="130" height="40" as="geometry" />
        </mxCell>
        <mxCell id="yYu8nk6ssNJERp2X1zkD-28" value="" style="edgeStyle=none;curved=1;rounded=0;orthogonalLoop=1;jettySize=auto;html=1;fontSize=12;startSize=8;endSize=8;" edge="1" parent="1" source="Rgwrd-3FqlNbxu6kmmEQ-3" target="yYu8nk6ssNJERp2X1zkD-41">
          <mxGeometry relative="1" as="geometry">
            <mxPoint x="440" y="475.71" as="targetPoint" />
          </mxGeometry>
        </mxCell>
        <mxCell id="Rgwrd-3FqlNbxu6kmmEQ-3" value="Primary Lab Router&lt;div&gt;WAN IP: [DHCP from ISP)&lt;/div&gt;&lt;div&gt;LAN IP: 192.168.1.1/24&lt;/div&gt;&lt;div&gt;DHCP: 192.168.1.100-150&lt;/div&gt;" style="text;html=1;align=center;verticalAlign=middle;resizable=0;points=[];autosize=1;strokeColor=none;fillColor=none;" vertex="1" parent="1">
          <mxGeometry x="321" y="361.21" width="160" height="70" as="geometry" />
        </mxCell>
        <mxCell id="Rgwrd-3FqlNbxu6kmmEQ-10" value="&lt;div&gt;Managed Switch&lt;/div&gt;&lt;div&gt;IP: 192.168.1.2&lt;/div&gt;&lt;div&gt;LAN1&lt;/div&gt;&lt;div&gt;(Intended for future use)&lt;/div&gt;" style="text;html=1;align=center;verticalAlign=middle;resizable=0;points=[];autosize=1;strokeColor=none;fillColor=none;" vertex="1" parent="1">
          <mxGeometry x="487" y="361.21" width="150" height="70" as="geometry" />
        </mxCell>
        <mxCell id="Rgwrd-3FqlNbxu6kmmEQ-16" value="Internet" style="text;html=1;align=center;verticalAlign=middle;resizable=0;points=[];autosize=1;strokeColor=none;fillColor=none;fontSize=16;" vertex="1" parent="1">
          <mxGeometry x="42" y="361.21" width="80" height="30" as="geometry" />
        </mxCell>
        <mxCell id="bt_KU9EcqKIK4WkLUJMS-7" value="&lt;div&gt;Example Network Topology&lt;/div&gt;(Before Segmentation)" style="text;html=1;align=center;verticalAlign=middle;resizable=0;points=[];autosize=1;strokeColor=none;fillColor=none;fontSize=16;" vertex="1" parent="1">
          <mxGeometry x="82" y="175.71" width="220" height="50" as="geometry" />
        </mxCell>
        <mxCell id="yYu8nk6ssNJERp2X1zkD-30" value="" style="edgeStyle=none;curved=1;rounded=0;orthogonalLoop=1;jettySize=auto;html=1;fontSize=12;startSize=8;endSize=8;" edge="1" parent="1" source="yYu8nk6ssNJERp2X1zkD-22" target="yYu8nk6ssNJERp2X1zkD-27">
          <mxGeometry relative="1" as="geometry" />
        </mxCell>
        <mxCell id="yYu8nk6ssNJERp2X1zkD-22" value="" style="shape=mxgraph.networks2.icon;aspect=fixed;fillColor=#EDEDED;strokeColor=#000000;gradientColor=#5B6163;network2IconShadow=1;network2bgFillColor=none;network2Icon=mxgraph.networks2.cloud;network2IconYOffset=-0.08;network2IconW=1.0004;network2IconH=0.7222;" vertex="1" parent="1">
          <mxGeometry x="42" y="305.84" width="80" height="57.75" as="geometry" />
        </mxCell>
        <mxCell id="yYu8nk6ssNJERp2X1zkD-24" value="" style="shape=mxgraph.networks2.icon;aspect=fixed;fillColor=#EDEDED;strokeColor=#000000;gradientColor=#5B6163;network2IconShadow=1;network2bgFillColor=none;network2Icon=mxgraph.networks2.gamepad;network2IconXOffset=0.00005;network2IconYOffset=0.00163;network2IconW=1.0021;network2IconH=0.7358;" vertex="1" parent="1">
          <mxGeometry x="360" y="145.5" width="82" height="60.21" as="geometry" />
        </mxCell>
        <mxCell id="yYu8nk6ssNJERp2X1zkD-40" value="" style="edgeStyle=none;curved=1;rounded=0;orthogonalLoop=1;jettySize=auto;html=1;fontSize=12;startSize=8;endSize=8;" edge="1" parent="1" source="yYu8nk6ssNJERp2X1zkD-42">
          <mxGeometry relative="1" as="geometry">
            <mxPoint x="562" y="334.70875776397514" as="targetPoint" />
          </mxGeometry>
        </mxCell>
        <mxCell id="yYu8nk6ssNJERp2X1zkD-44" value="" style="edgeStyle=none;curved=1;rounded=0;orthogonalLoop=1;jettySize=auto;html=1;fontSize=12;startSize=8;endSize=8;" edge="1" parent="1" target="H0DkvbpDqiZ52gmWc9GN-28">
          <mxGeometry relative="1" as="geometry">
            <mxPoint x="402.00348532327166" y="311.41" as="sourcePoint" />
            <mxPoint x="430.5" y="255.71" as="targetPoint" />
          </mxGeometry>
        </mxCell>
        <mxCell id="yYu8nk6ssNJERp2X1zkD-26" value="" style="fillColorStyles=neutralFill;neutralFill=#9DA6A8;shape=mxgraph.networks2.icon;aspect=fixed;fillColor=#EDEDED;strokeColor=#000000;gradientColor=#5B6163;network2IconShadow=1;network2bgFillColor=none;network2Icon=mxgraph.networks2.router;network2IconXOffset=0.0001;network2IconYOffset=-0.1142;network2IconW=1;network2IconH=0.5485;" vertex="1" parent="1">
          <mxGeometry x="360" y="311.40999999999997" width="82" height="44.97" as="geometry" />
        </mxCell>
        <mxCell id="yYu8nk6ssNJERp2X1zkD-35" value="" style="edgeStyle=none;curved=1;rounded=0;orthogonalLoop=1;jettySize=auto;html=1;fontSize=12;startSize=8;endSize=8;" edge="1" parent="1" source="yYu8nk6ssNJERp2X1zkD-25" target="yYu8nk6ssNJERp2X1zkD-26">
          <mxGeometry relative="1" as="geometry" />
        </mxCell>
        <mxCell id="yYu8nk6ssNJERp2X1zkD-27" value="" style="fillColorStyles=neutralFill;neutralFill=#9DA6A8;shape=mxgraph.networks2.icon;aspect=fixed;fillColor=#EDEDED;strokeColor=#000000;gradientColor=#5B6163;network2IconShadow=1;network2bgFillColor=none;network2Icon=mxgraph.networks2.modem;network2IconYOffset=0.0131;network2IconW=1;network2IconH=0.2938;" vertex="1" parent="1">
          <mxGeometry x="162" y="322.97" width="80" height="23.5" as="geometry" />
        </mxCell>
        <mxCell id="yYu8nk6ssNJERp2X1zkD-36" value="" style="edgeStyle=none;curved=1;rounded=0;orthogonalLoop=1;jettySize=auto;html=1;fontSize=12;startSize=8;endSize=8;" edge="1" parent="1" source="yYu8nk6ssNJERp2X1zkD-27" target="yYu8nk6ssNJERp2X1zkD-25">
          <mxGeometry relative="1" as="geometry">
            <mxPoint x="282" y="334.71" as="sourcePoint" />
            <mxPoint x="400" y="334.71" as="targetPoint" />
          </mxGeometry>
        </mxCell>
        <mxCell id="yYu8nk6ssNJERp2X1zkD-25" value="" style="shape=mxgraph.networks2.icon;aspect=fixed;fillColor=#EDEDED;strokeColor=#000000;gradientColor=#5B6163;network2IconShadow=1;network2bgFillColor=none;network2Icon=mxgraph.networks2.firewall;network2IconXOffset=0.0001;network2IconYOffset=0.0001;network2IconW=1;network2IconH=0.608;" vertex="1" parent="1">
          <mxGeometry x="282" y="321.72999999999996" width="40" height="24.32" as="geometry" />
        </mxCell>
        <mxCell id="yYu8nk6ssNJERp2X1zkD-41" value="" style="shape=mxgraph.networks2.icon;aspect=fixed;fillColor=#EDEDED;strokeColor=#000000;gradientColor=#5B6163;network2IconShadow=1;network2bgFillColor=none;network2Icon=mxgraph.networks2.monitor;network2IconYOffset=-0.009;network2IconW=1;network2IconH=0.742;" vertex="1" parent="1">
          <mxGeometry x="360" y="455.7100000000001" width="82" height="60.84" as="geometry" />
        </mxCell>
        <mxCell id="yYu8nk6ssNJERp2X1zkD-45" value="" style="shape=mxgraph.networks2.icon;aspect=fixed;fillColor=#EDEDED;strokeColor=#000000;gradientColor=#5B6163;network2IconShadow=1;network2bgFillColor=none;network2Icon=mxgraph.networks2.mobile_phone;network2IconXOffset=0.0049;network2IconW=0.5297;network2IconH=1.02;" vertex="1" parent="1">
          <mxGeometry x="701.35" y="65" width="41.8" height="80.5" as="geometry" />
        </mxCell>
        <mxCell id="yYu8nk6ssNJERp2X1zkD-46" value="" style="shape=mxgraph.networks2.icon;aspect=fixed;fillColor=#EDEDED;strokeColor=#000000;gradientColor=#5B6163;network2IconShadow=1;network2bgFillColor=none;network2Icon=mxgraph.networks2.mobile_phone;network2IconXOffset=0.0049;network2IconW=0.5297;network2IconH=1.02;" vertex="1" parent="1">
          <mxGeometry x="861.7" y="65" width="41.8" height="80.5" as="geometry" />
        </mxCell>
        <mxCell id="yYu8nk6ssNJERp2X1zkD-47" value="" style="shape=mxgraph.networks2.icon;aspect=fixed;fillColor=#EDEDED;strokeColor=#000000;gradientColor=#5B6163;network2IconShadow=1;network2bgFillColor=none;network2Icon=mxgraph.networks2.laptop;network2IconW=1;network2IconH=0.5734;rotation=0;" vertex="1" parent="1">
          <mxGeometry x="682" y="235.71" width="80" height="46.16" as="geometry" />
        </mxCell>
        <mxCell id="yYu8nk6ssNJERp2X1zkD-48" value="" style="shape=mxgraph.networks2.icon;aspect=fixed;fillColor=#EDEDED;strokeColor=#000000;gradientColor=#5B6163;network2IconShadow=1;network2bgFillColor=none;network2Icon=mxgraph.networks2.laptop;network2IconW=1;network2IconH=0.5734;rotation=0;" vertex="1" parent="1">
          <mxGeometry x="842.6" y="235.71" width="80" height="46.16" as="geometry" />
        </mxCell>
        <mxCell id="yYu8nk6ssNJERp2X1zkD-49" value="" style="verticalLabelPosition=bottom;sketch=0;html=1;fillColor=#282828;strokeColor=none;verticalAlign=top;pointerEvents=1;align=center;shape=mxgraph.cisco_safe.technology_icons.icon24;" vertex="1" parent="1">
          <mxGeometry x="691.25" y="535.71" width="61.5" height="60" as="geometry" />
        </mxCell>
        <mxCell id="yYu8nk6ssNJERp2X1zkD-50" value="" style="verticalLabelPosition=bottom;sketch=0;html=1;fillColor=#282828;strokeColor=none;verticalAlign=top;pointerEvents=1;align=center;shape=mxgraph.cisco_safe.technology_icons.icon24;" vertex="1" parent="1">
          <mxGeometry x="851.0500000000001" y="535.71" width="60.8" height="60" as="geometry" />
        </mxCell>
        <mxCell id="yYu8nk6ssNJERp2X1zkD-51" value="" style="verticalLabelPosition=bottom;sketch=0;html=1;fillColor=#282828;strokeColor=none;verticalAlign=top;pointerEvents=1;align=center;shape=mxgraph.cisco_safe.security_icons.vpn;rotation=0;" vertex="1" parent="1">
          <mxGeometry x="721.5" y="205.71" width="20" height="20" as="geometry" />
        </mxCell>
        <mxCell id="yYu8nk6ssNJERp2X1zkD-52" value="" style="verticalLabelPosition=bottom;sketch=0;html=1;fillColor=#282828;strokeColor=none;verticalAlign=top;pointerEvents=1;align=center;shape=mxgraph.cisco_safe.technology_icons.icon26;rotation=0;" vertex="1" parent="1">
          <mxGeometry x="751.75" y="215.71" width="20" height="20" as="geometry" />
        </mxCell>
        <mxCell id="yYu8nk6ssNJERp2X1zkD-53" value="" style="verticalLabelPosition=bottom;sketch=0;html=1;fillColor=#282828;strokeColor=none;verticalAlign=top;pointerEvents=1;align=center;shape=mxgraph.cisco_safe.technology_icons.icon26;rotation=0;" vertex="1" parent="1">
          <mxGeometry x="751.75" y="44.99999999999999" width="20" height="20" as="geometry" />
        </mxCell>
        <mxCell id="yYu8nk6ssNJERp2X1zkD-54" value="" style="verticalLabelPosition=bottom;sketch=0;html=1;fillColor=#282828;strokeColor=none;verticalAlign=top;pointerEvents=1;align=center;shape=mxgraph.cisco_safe.technology_icons.icon26;rotation=0;" vertex="1" parent="1">
          <mxGeometry x="911.5" y="44.99999999999999" width="20" height="20" as="geometry" />
        </mxCell>
        <mxCell id="yYu8nk6ssNJERp2X1zkD-55" value="" style="verticalLabelPosition=bottom;sketch=0;html=1;fillColor=#282828;strokeColor=none;verticalAlign=top;pointerEvents=1;align=center;shape=mxgraph.cisco_safe.technology_icons.icon26;rotation=0;" vertex="1" parent="1">
          <mxGeometry x="911.5" y="215.71" width="20" height="20" as="geometry" />
        </mxCell>
        <mxCell id="yYu8nk6ssNJERp2X1zkD-56" value="" style="verticalLabelPosition=bottom;sketch=0;html=1;fillColor=#282828;strokeColor=none;verticalAlign=top;pointerEvents=1;align=center;shape=mxgraph.cisco_safe.technology_icons.icon26;rotation=0;" vertex="1" parent="1">
          <mxGeometry x="911.5" y="373.59" width="20" height="20" as="geometry" />
        </mxCell>
        <mxCell id="yYu8nk6ssNJERp2X1zkD-57" value="" style="verticalLabelPosition=bottom;sketch=0;html=1;fillColor=#282828;strokeColor=none;verticalAlign=top;pointerEvents=1;align=center;shape=mxgraph.cisco_safe.technology_icons.icon26;rotation=0;" vertex="1" parent="1">
          <mxGeometry x="911.5" y="515.71" width="20" height="20" as="geometry" />
        </mxCell>
        <mxCell id="yYu8nk6ssNJERp2X1zkD-58" value="" style="verticalLabelPosition=bottom;sketch=0;html=1;fillColor=#282828;strokeColor=none;verticalAlign=top;pointerEvents=1;align=center;shape=mxgraph.cisco_safe.technology_icons.icon26;rotation=0;" vertex="1" parent="1">
          <mxGeometry x="751.75" y="515.71" width="20" height="20" as="geometry" />
        </mxCell>
        <mxCell id="yYu8nk6ssNJERp2X1zkD-59" value="" style="verticalLabelPosition=bottom;sketch=0;html=1;fillColor=#282828;strokeColor=none;verticalAlign=top;pointerEvents=1;align=center;shape=mxgraph.cisco_safe.technology_icons.icon26;rotation=0;" vertex="1" parent="1">
          <mxGeometry x="751.75" y="373.59" width="20" height="20" as="geometry" />
        </mxCell>
        <mxCell id="yYu8nk6ssNJERp2X1zkD-61" value="" style="verticalLabelPosition=bottom;sketch=0;html=1;fillColor=#282828;strokeColor=none;verticalAlign=top;pointerEvents=1;align=center;shape=mxgraph.cisco_safe.security_icons.icon15;" vertex="1" parent="1">
          <mxGeometry x="861.7" y="391.71" width="39.5" height="50" as="geometry" />
        </mxCell>
        <mxCell id="yYu8nk6ssNJERp2X1zkD-63" value="" style="edgeStyle=none;curved=1;rounded=0;orthogonalLoop=1;jettySize=auto;html=1;fontSize=12;startSize=8;endSize=8;" edge="1" parent="1" source="yYu8nk6ssNJERp2X1zkD-26" target="yYu8nk6ssNJERp2X1zkD-42">
          <mxGeometry relative="1" as="geometry">
            <mxPoint x="442" y="333.71" as="sourcePoint" />
            <mxPoint x="562" y="334.70875776397514" as="targetPoint" />
          </mxGeometry>
        </mxCell>
        <mxCell id="yYu8nk6ssNJERp2X1zkD-42" value="" style="fillColorStyles=neutralFill;neutralFill=#9DA6A8;shape=mxgraph.networks2.icon;aspect=fixed;fillColor=#EDEDED;strokeColor=#000000;gradientColor=#5B6163;network2IconShadow=1;network2bgFillColor=none;network2Icon=mxgraph.networks2.hub;network2IconXOffset=0.0001;network2IconYOffset=0.0129;network2IconW=1;network2IconH=0.2938;" vertex="1" parent="1">
          <mxGeometry x="522" y="322.54999999999995" width="80" height="23.5" as="geometry" />
        </mxCell>
        <mxCell id="yHqU5__EdvC5VMahKL8O-1" value="" style="sketch=0;pointerEvents=1;shadow=0;dashed=0;html=1;strokeColor=none;fillColor=#000000;labelPosition=center;verticalLabelPosition=bottom;verticalAlign=top;outlineConnect=0;align=center;shape=mxgraph.office.devices.tv;" vertex="1" parent="1">
          <mxGeometry x="693" y="397" width="59" height="45" as="geometry" />
        </mxCell>
      </root>
    </mxGraphModel>
  </diagram>
</mxfile>
